<svg width="22" height="22" fill="none" xmlns="http://www.w3.org/2000/svg">
    <circle cx="11" cy="11" r="11" fill="#000"/>
    <path d="M11.001 6.9c1.336 0 1.494.006 2.02.03.488.021.752.103.928.172.232.09.4.199.574.373.176.176.283.342.373.574.069.176.15.442.172.928.024.528.03.686.03 2.02 0 1.336-.006 1.495-.03 2.02-.021.488-.103.752-.172.928-.09.232-.199.4-.373.574a1.537 1.537 0 0 1-.574.373c-.176.069-.442.15-.928.172-.528.024-.686.03-2.02.03-1.336 0-1.494-.006-2.02-.03-.488-.021-.752-.103-.928-.172-.232-.09-.4-.199-.574-.373a1.538 1.538 0 0 1-.373-.574c-.069-.176-.15-.442-.172-.928-.024-.527-.03-.686-.03-2.02 0-1.336.006-1.494.03-2.02.021-.488.103-.752.172-.928.09-.232.199-.4.373-.574.176-.176.342-.283.574-.373.176-.069.442-.15.928-.172.526-.024.684-.03 2.02-.03Zm0-.9c-1.358 0-1.528.006-2.061.03-.531.023-.897.109-1.213.232a2.44 2.44 0 0 0-.887.578 2.45 2.45 0 0 0-.578.885c-.123.318-.21.682-.233 1.213-.023.535-.029.705-.029 2.063s.006 1.528.03 2.06c.023.532.109.898.232 1.214.129.33.299.61.578.887.277.277.557.45.885.576.318.123.682.21 1.213.233.533.023.703.029 2.061.029s1.528-.006 2.061-.03c.531-.023.897-.109 1.213-.232.328-.127.608-.299.885-.576.277-.278.45-.557.576-.885.123-.318.21-.682.233-1.213.023-.533.03-.703.03-2.061s-.007-1.528-.03-2.061c-.024-.531-.11-.897-.233-1.213a2.341 2.341 0 0 0-.572-.889 2.444 2.444 0 0 0-.885-.576c-.318-.123-.682-.21-1.213-.233C12.529 6.006 12.359 6 11 6Z" fill="#fff"/>
    <path d="M11 8.432a2.57 2.57 0 1 0 .002 5.14A2.57 2.57 0 0 0 11 8.431Zm0 4.235a1.667 1.667 0 1 1 0-3.333 1.667 1.667 0 0 1 0 3.333ZM14.27 8.33a.6.6 0 1 1-1.2 0 .6.6 0 0 1 1.2 0Z" fill="#fff"/>
</svg>
