<svg width="22" height="22" viewBox="0 0 22 22" fill="none" xmlns="http://www.w3.org/2000/svg">
<circle cx="11" cy="11" r="11" fill="black"/>
<path d="M14.9762 8.99158C14.9823 9.07837 14.9823 9.16517 14.9823 9.25276C14.9823 11.9218 12.9185 15 9.14483 15V14.9984C8.03006 15 6.93845 14.6856 6 14.0929C6.1621 14.1121 6.32501 14.1217 6.48832 14.1221C7.41215 14.1229 8.30957 13.8177 9.03636 13.2557C8.15844 13.2393 7.38858 12.6757 7.11964 11.853C7.42718 11.9114 7.74406 11.8994 8.04591 11.8182C7.08877 11.6278 6.40016 10.7999 6.40016 9.83833V9.81273C6.68535 9.96912 7.00467 10.0559 7.3313 10.0655C6.42982 9.47235 6.15194 8.29162 6.69632 7.36848C7.73796 8.6304 9.27483 9.39755 10.9246 9.47875C10.7593 8.77719 10.9852 8.04204 11.5182 7.54887C12.3445 6.78412 13.6441 6.82332 14.4209 7.63646C14.8804 7.54727 15.3207 7.38128 15.7237 7.1461C15.5706 7.61367 15.2501 8.01084 14.8219 8.26323C15.2285 8.21603 15.6258 8.10883 16 7.94525C15.7246 8.35162 15.3776 8.7056 14.9762 8.99158Z" fill="white"/>
</svg>
