<?xml version="1.0" encoding="UTF-8"?>
<svg id="Calque_2" data-name="Calque 2" xmlns="http://www.w3.org/2000/svg" viewBox="0 0 603.01 345.92">
  <defs>
    <style>
      .cls-1 {
        fill: lime;
      }

      .cls-2 {
        fill: #fff;
      }
    </style>
  </defs>
  <g id="Calque_1-2" data-name="Calque 1">
    <path class="cls-2" d="m385.97,241.19c-1.48,2.04-3.06,3.99-4.76,5.85h198.02c13.14,0,23.78,10.65,23.78,23.78v51.31c0,13.14-10.65,23.78-23.78,23.78H204.13c-13.14,0-23.78-10.65-23.78-23.78v-45.6l-150.91,39.45c-14.89,3.89-29.44-7.34-29.44-22.73v-124.4c0-10.69,7.21-20.03,17.55-22.73l50.63-13.23,36.83-9.63v-57.22c0-8.83,5.96-16.55,14.5-18.78L281.9,4.81c12.3-3.22,24.32,6.07,24.32,18.78v47.08l27.4-7.17L573.57.78c14.89-3.89,29.44,7.34,29.44,22.73v124.4c0,10.69-7.21,20.03-17.55,22.73l-27.55,7.2-133.15,34.81c-.66,1.9-1.44,3.73-2.35,5.5-1.88,3.64-4.26,6.98-7.07,9.91-7.44,7.8-17.83,12.77-29.37,13.13Z"/>
    <g>
      <path class="cls-1" d="m313.85,103.49c-.78-2.97,1-6,3.96-6.77L574.82,29.39c2.96-.77,6,1,6.77,3.96.78,2.97-1,6-3.96,6.77l-257.01,67.32c-.47.12-.94.18-1.41.18-2.46,0-4.71-1.65-5.37-4.15Zm260.98,33.73l-183.77,47.76c-2.97.77-4.75,3.8-3.98,6.77.65,2.5,2.9,4.16,5.37,4.16.46,0,.93-.06,1.4-.18l183.77-47.76c2.97-.77,4.75-3.8,3.98-6.77-.77-2.97-3.79-4.75-6.77-3.98Zm-295.18,76.83l-52.9,13.73c-2.97.77-4.75,3.8-3.98,6.77.65,2.5,2.9,4.16,5.37,4.16.46,0,.93-.06,1.4-.18l52.9-13.73c2.97-.77,4.75-3.8,3.98-6.77-.77-2.97-3.8-4.75-6.77-3.98Zm167.05-84.11l-50.29,13.34c1.1,4.73,3.53,8.38,7.07,10.57,3.92,2.43,9.02,2.91,14.74,1.39,8.72-2.31,14.45-7.95,18.02-13.06,1.22-1.74,4.31-6.04,8.03-4.49,4.04,1.69,2.82,6.01,2.19,7.07-6.22,10.48-15.99,18.13-26.83,21-3.36.89-6.58,1.34-9.61,1.34-5.83,0-10.98-1.64-15.19-4.88-6.44-4.96-9.99-13.25-9.99-23.36,0-19.04,14.41-38.35,32.12-43.04,8.63-2.29,16.87-.87,23.2,4,6.58,5.06,10.35,13.48,10.35,23.1,0,.75-.04,1.62-.11,2.57-.16,2.11-1.65,3.9-3.7,4.44Zm-7.17-9c-.74-5.47-3.3-9.94-7.24-12.63-2.56-1.74-5.6-2.63-8.86-2.63-1.64,0-3.33.22-5.04.68-10.62,2.82-20.03,13.94-22.2,26.08l43.34-11.5Zm68.32-42.39c-4.99-3.21-11.48-3.78-19.29-1.71-6.78,1.8-12.81,5.4-17.53,10.39-.36-.72-.88-1.36-1.54-1.87-1.29-.99-2.93-1.35-4.51-.98-2.32.54-4.17,3.11-4.17,5.49v55.84c0,1.56.58,3.09,1.73,4.15,1.03.94,2.32,1.44,3.65,1.44.49,0,.99-.07,1.47-.2,2.37-.67,3.93-2.95,3.93-5.41v-42.01c3.16-7.64,10.08-13.85,17.77-15.89,5.27-1.4,9.29-1.28,11.95.34,2.17,1.33,3.61,3.75,4.39,7.39.31,1.44,1.21,2.71,2.46,3.48,1.25.77,2.78.99,4.19.61l.35-.09c2.72-.72,4.41-3.37,3.93-6.16-1.16-6.76-4.19-11.88-8.77-14.83Zm11.34,51.99c0,1.64.74,3.15,2.04,4.15.93.72,2.04,1.09,3.18,1.09.45,0,.9-.06,1.35-.18l52.18-13.84c2.31-.61,3.92-2.71,3.92-5.09,0-1.65-.75-3.17-2.06-4.18-1.31-1.01-2.97-1.34-4.56-.92l-38.41,10.19,42.79-58.39h0c.65-.89,1-1.94,1-3.05,0-1.72-.83-3.29-2.26-4.27-1.28-.87-2.91-1.06-4.41-.66l-48.34,12.82c-2.31.61-3.92,2.71-3.92,5.09,0,1.65.75,3.17,2.06,4.18,1.31,1.01,2.97,1.34,4.57.92l34.55-9.16-42.65,58.21c-.66.9-1.01,1.97-1.01,3.09Zm-118.68,83.25c.85,2.75-.69,5.66-3.33,6.8-12.83,5.57-22.45,4.12-30.61.69-5.56,14.53-14.84,26.72-30.3,28.55-1.67.2-3.3.3-4.89.3-6.78,0-12.76-1.79-17.47-5.28-5.35-3.95-8.75-9.84-9.58-16.58-1.62-13.11,7.04-28.39,26.29-30.87,12.39-1.59,21.39,3.14,29.27,7.73,2.44-10.53,3.48-21.61,3.75-30.23-5.05,5.06-11.47,8.78-18.71,10.7-2.8.74-5.56,1.11-8.22,1.11-5.81,0-11.18-1.75-15.61-5.15-6.67-5.13-10.34-13.3-10.34-23.02,0-19.04,14.69-38.42,32.75-43.21,7.84-2.08,14.83-1.6,20.26,1.3v-1c0-2.39,1.86-4.96,4.19-5.49,1.58-.36,3.2,0,4.49.98,1.34,1.03,2.11,2.59,2.11,4.28,0,0,2.65,58.48-4.62,95.25,6.57,2.97,13.31,3.96,23.03-.32,3.01-1.32,6.55.23,7.55,3.47Zm-43.83,2.32c-.28-.17-.57-.33-.85-.5-6.73-3.95-12.67-7.43-20.36-7.43-1.11,0-2.25.07-3.44.23-12.26,1.58-17.67,10.5-16.69,18.5,1.28,10.34,11.37,12.87,19.62,11.9,10.52-1.25,17.36-10.71,21.71-22.69Zm7.09-84.84c-2.45-4.05-7.09-6.26-12.65-6.26-1.96,0-4.04.28-6.18.84-12.61,3.34-23.25,17.66-23.25,31.26,0,6.58,2.41,12.06,6.78,15.43,4.07,3.13,9.41,4.02,15.05,2.53,8.78-2.33,16.67-8.96,20.26-16.98v-26.82Zm-130.45,22.27c.54-1.37.46-2.91-.23-4.22-.69-1.31-1.92-2.24-3.36-2.56-2.44-.54-4.87.75-5.79,3.07l-22.1,55.92h-.03s-16.74-32.35-16.74-32.35c-.73-1.49-2.08-2.58-3.7-2.97-1.62-.39-3.31-.05-4.65.94-2.18,1.62-2.89,4.55-1.66,7.03l20.87,40.05c-3.32,7.27-6.82,11.67-9.49,14.24-6.58,6.32-14.31,9.25-24.63,11.92l-104.96,27.15c-2.97.77-4.75,3.8-3.98,6.76.65,2.5,2.9,4.16,5.37,4.16.46,0,.93-.06,1.39-.18l104.96-27.15c11.73-3.03,21.24-6.69,29.54-14.66,6.66-6.4,12.23-16.33,16.1-28.72.03-.11.06-.22.08-.33l23-58.12Zm-133.71,61.01c0-19.04,14.97-38.49,33.37-43.37,9.25-2.45,18-.99,24.65,4.13,6.62,5.09,10.27,13.12,10.27,22.6,0,19.11-15.03,38.64-33.49,43.54-2.89.77-5.74,1.15-8.48,1.15-5.96,0-11.47-1.79-16-5.27-6.65-5.12-10.31-13.2-10.31-22.77Zm10.91-1.42c0,6.43,2.4,11.82,6.76,15.17,4.23,3.25,9.81,4.18,15.7,2.62,13.01-3.45,24-17.92,24-31.59,0-6.35-2.38-11.68-6.71-15.01-2.9-2.23-6.44-3.38-10.3-3.38-1.8,0-3.67.25-5.57.75-12.94,3.43-23.88,17.83-23.88,31.43Zm198.01-13.79c2.23,0,4.35-1.35,5.2-3.61,1.04-2.76-.41-5.82-3.07-7.07-2.78-1.31-4.81-2.82-6.27-4.3-2.54-2.57-3.87-6.09-3.86-9.7l.09-30.83c0-1.69-.76-3.25-2.1-4.29-1.43-1.1-3.27-1.42-5.02-.84-2.23.74-3.66,2.93-3.67,5.29l-.12,27.23c-.02,5.86-2.29,11.55-6.51,15.63-3.84,3.71-8.66,6.53-13.78,7.89-5.64,1.49-10.98.6-15.05-2.53-4.37-3.37-6.78-8.84-6.78-15.43,0-13.6,10.65-27.92,23.25-31.26,2.9-.77,5.7-1.02,8.33-.73,2.66.29,5.04-1.16,5.88-3.78.36-1.11.35-2.34-.02-3.44-.78-2.32-2.79-3.74-5.37-3.83-3.2-.12-6.65.31-10.24,1.26-18.05,4.79-32.74,24.17-32.74,43.21,0,9.71,3.67,17.89,10.34,23.02,4.43,3.41,9.8,5.15,15.61,5.15,2.66,0,5.42-.37,8.22-1.11,9.32-2.47,17.32-7.9,22.73-15.38.23-.1.44-.24.64-.4,2.44,3.3,6.2,6.69,11.99,9.36.75.35,1.54.51,2.32.51Zm-248,60.88c.44,0,.89-.06,1.33-.17l.08-.02c1.54-.41,2.78-1.49,3.4-2.96l44.18-104.84c.59-1.39.53-2.96-.15-4.3-.68-1.34-1.91-2.31-3.38-2.66-2.45-.58-4.92.68-5.9,2.99l-39.56,93.85-32.12-60.01c-.94-1.76-2.83-2.84-4.93-2.69-1.03.08-2,.51-2.81,1.13l-.74.57c-1.99,1.53-2.58,4.25-1.39,6.47l37.48,69.94c.91,1.7,2.64,2.7,4.5,2.7Z"/>
      <path class="cls-1" d="m302.4,95.74c-.89-.69-2.04-.89-3.22-.58-1.48.39-2.49,1.71-2.85,2.25-.12.18-11.95,17.81-24.85,21.23-1.74.46-3.14.37-3.95-.25-.87-.67-1.05-1.97-1.05-2.95,0-.24,0-.49,0-.75,8.87-4.77,27.7-16.9,27.7-26.48,0-2.35-.9-4.33-2.53-5.59-1.28-.99-3.57-1.96-7.2-.99-8.66,2.3-20.58,14.47-25.14,25.82-3,4.22-11.19,14.38-16.77,15.89.32-2.2,3.12-6.33,5.4-9.69,3.43-5.06,6.67-9.85,6.67-13.91,0-2.42-.89-4.44-2.49-5.67-1.6-1.23-3.72-1.58-5.98-.98-8.36,2.22-21.02,15.11-30.76,27.24,5.22-14.77,13.06-34.21,22.72-49.94,6.77.39,12.76-.17,18.7-1.75,14.22-3.77,24.15-13.23,24.15-23,0-4.37-1.97-6.81-3.63-8.08-3.18-2.44-8.01-2.9-13.96-1.32-9.81,2.6-19.64,11.02-29.23,25.02-4.04-.45-8.1-1.18-12.37-1.95-.39-.07-.78-.14-1.17-.21,7.69-9.74,16.14-15.73,25.73-18.28,2.21-.58,3.81-2.51,3.81-4.57,0-1.21-.52-2.31-1.43-3.01-.59-.45-1.89-1.14-3.93-.6-12.6,3.34-23.49,11.49-33.26,24.9-10.34-1.4-21.69-2.06-34.75,1.4-16.03,4.25-30.71,12.88-41.33,24.3-10.41,11.19-16.14,24.04-16.14,36.2s5.16,18.62,9.5,21.95c7.27,5.59,16.58,5.85,21.07,4.66,3.77-1,4.56-2.93,4.56-4.38,0-1.11-.46-2.07-1.29-2.71-1.42-1.09-3.14-.63-3.7-.48-3.01.79-9.24.62-14.12-3.14-4.38-3.37-6.6-8.72-6.6-15.9,0-24.2,25.34-45.38,49.85-51.88,10.04-2.66,19.1-2.49,27.44-1.56-9.17,15.16-16.23,33.42-23.06,51.11-11.91,30.82-26.92,68.82-46.67,74.32-14.26,3.97-21.54-9.62-23.93-12.07-1.1-1.13-2.24-2.29-4.01-1.82-1.61.42-2.82,2-2.82,3.66,0,1.95,1.86,5.94,3.92,8.31,2.16,2.48,11.33,11.95,21.24,11.43,1.94-.1,4.08-.26,6.4-.88,25.83-6.85,41.89-48.25,54.98-82.42,6.8-17.76,13.83-36.1,22.86-50.44,1.95.31,3.88.64,5.77.96,2.7.46,5.47.94,8.25,1.34-14.74,25.09-24.25,55.59-26.9,64.67-.82,2.76-1.36,4.59-1.36,6.29,0,1.29.6,2.5,1.64,3.3,1.09.84,2.53,1.14,3.85.79,1.93-.51,3.09-2.13,4.55-4.18l.17-.24c8.96-13.47,25.88-32.46,33.92-37.27-.94,1.79-2.55,4.12-3.85,6-3.5,5.07-7.46,10.81-7.46,15.94,0,3.3,1.42,5.09,2.62,6.01,1.77,1.36,4.25,1.72,6.98.99,5.34-1.42,10.89-6.28,15.18-10.89.82,2.17,2.11,3.58,3.27,4.47,1.91,1.47,4.31,2.21,7.01,2.21,1.39,0,2.85-.2,4.37-.6,15.3-4.06,29.21-24.4,29.8-25.29.5-.75,1.09-1.87,1.09-2.99,0-1.21-.51-2.29-1.39-2.97Zm-17.21-5.62c-1.55,3.05-6.99,7.95-13.51,12.3,4.02-5.75,9.46-10.64,13.51-12.3Zm-20.28-45.58c2-.53,3.43-.71,4.44-.71,1.34,0,1.95.31,2.21.5.48.37.72,1.17.72,2.38,0,5.35-7.06,11.1-16.78,13.68-3.64.97-7.43,1.46-11.66,1.5,7.09-9.6,14.32-15.57,21.07-17.36Z"/>
      <g>
        <path class="cls-1" d="m209.6,302.16c4.44,0,8.16,3.64,8.16,8.08s-3.72,8.16-8.16,8.16-8.08-3.8-8.08-8.16,3.64-8.08,8.08-8.08h0Z"/>
        <path class="cls-1" d="m245.33,288.22c-4.67,0-8.95,3.09-8.95,9.74s4.28,9.82,8.95,9.82,8.87-3.25,8.87-9.82-4.2-9.74-8.87-9.74h0Zm-20.59,29.46v-57.34h11.8v21.7c1.66-2.46,6.02-4.67,11.41-4.67,11.4,0,18.3,8.71,18.3,20.51s-7.76,20.67-18.77,20.67c-5.23,0-9.27-2.3-11.09-5.31v4.44h-11.64Z"/>
        <path class="cls-1" d="m297.28,293.29c-.16-3.01-2.22-6.65-7.92-6.65-5.07,0-7.6,3.72-7.84,6.65h15.76Zm10.93,13.07c-1.9,6.81-8.16,12.51-18.14,12.51-10.85,0-20.51-7.76-20.51-20.99s9.43-20.75,19.64-20.75c12.2,0,19.72,7.52,19.72,20.2,0,1.66-.16,3.48-.24,3.72h-27.41c.24,4.44,4.28,7.6,8.95,7.6,4.35,0,6.81-2.06,7.92-5.15l10.06,2.85Z"/>
        <path class="cls-1" d="m325.8,298.04c0,6.26,4.2,9.74,9.19,9.74,4.67,0,7.29-2.93,8.16-5.86l10.61,3.25c-1.74,6.89-8.24,13.7-18.77,13.7-11.72,0-21.15-8.63-21.15-20.83s9.19-20.91,20.75-20.91c10.85,0,17.19,6.65,18.93,13.7l-10.77,3.25c-.87-3.01-3.25-5.86-7.92-5.86-4.99,0-9.03,3.48-9.03,9.82h0Z"/>
        <path class="cls-1" d="m386.47,297.96c0-6.65-4.28-9.74-8.87-9.74s-8.87,3.09-8.87,9.74,4.36,9.82,8.87,9.82,8.87-3.17,8.87-9.82h0Zm12.04,0c0,12.2-9.11,20.91-20.91,20.91s-20.91-8.71-20.91-20.91,9.19-20.83,20.91-20.83,20.91,8.63,20.91,20.83h0Z"/>
        <path class="cls-1" d="m403.1,317.68v-39.36h11.48v4.51c1.98-3.48,7.05-5.7,11.33-5.7,5.62,0,9.66,2.3,11.64,6.18,3.09-4.43,6.89-6.18,12.2-6.18,7.44,0,14.57,4.36,14.57,15.05v25.5h-11.64v-22.81c0-3.72-1.98-6.65-6.26-6.65s-6.57,3.25-6.57,6.73v22.73h-11.88v-22.81c0-3.72-1.98-6.65-6.34-6.65s-6.49,3.25-6.49,6.81v22.65h-12.04Z"/>
        <path class="cls-1" d="m471.3,278.32h12.04v39.36h-12.04v-39.36Zm5.94-19.09c3.96,0,7.13,3.17,7.13,7.05s-3.17,7.05-7.13,7.05-6.97-3.17-6.97-7.05,3.17-7.05,6.97-7.05h0Z"/>
        <path class="cls-1" d="m502.74,317.68h-12.04v-39.36h11.64v4.51c2.14-3.72,6.97-5.54,11.01-5.54,9.9,0,14.33,7.05,14.33,15.68v24.71h-12.04v-22.65c0-3.88-2.06-6.81-6.42-6.81-3.96,0-6.49,2.93-6.49,6.89v22.57Z"/>
        <path class="cls-1" d="m560.8,296.85c0-5.39-3.88-8.71-8.4-8.71s-8.47,3.33-8.47,8.71,3.64,8.71,8.47,8.71,8.4-3.33,8.4-8.71h0Zm-18.3,20.04c.79,3.8,3.96,6.57,8.47,6.57,6.02,0,9.74-2.93,9.74-10.06v-1.82c-1.42,2.14-4.83,4.44-10.53,4.44-10.45,0-18.3-8.24-18.3-19.17s7.53-19.25,18.3-19.25c6.42,0,9.82,2.85,10.93,4.91v-4.2h11.48v34.45c0,11.33-6.34,21.15-21.07,21.15-11.33,0-18.53-6.97-19.64-14.02l10.61-3.01Z"/>
        <path class="cls-1" d="m579.82,266.28c0,1.73,1.08,2.65,2.31,2.65,1.4,0,1.92-.96,2.09-1.56l1.31.58c-.36,1.08-1.44,2.34-3.4,2.34-2.19,0-3.8-1.73-3.8-4.01s1.63-3.99,3.78-3.99c2.02,0,3.05,1.27,3.36,2.4l-1.34.56c-.17-.73-.73-1.59-2.02-1.59-1.19,0-2.29.88-2.29,2.63h0Zm2.25,5.74c3.07,0,5.49-2.48,5.49-5.7s-2.42-5.68-5.49-5.68-5.49,2.46-5.49,5.68,2.42,5.7,5.49,5.7h0Zm0-12.79c3.9,0,7.05,3.19,7.05,7.08s-3.15,7.11-7.05,7.11-6.99-3.21-6.99-7.11,3.11-7.08,6.99-7.08h0Z"/>
      </g>
    </g>
  </g>
</svg>